<?xml version="1.0" encoding="UTF-8" standalone="no"?>
<svg
   xmlns:dc="http://purl.org/dc/elements/1.1/"
   xmlns:cc="http://creativecommons.org/ns#"
   xmlns:rdf="http://www.w3.org/1999/02/22-rdf-syntax-ns#"
   xmlns:svg="http://www.w3.org/2000/svg"
   xmlns="http://www.w3.org/2000/svg"
   xmlns:sodipodi="http://sodipodi.sourceforge.net/DTD/sodipodi-0.dtd"
   xmlns:inkscape="http://www.inkscape.org/namespaces/inkscape"
   width="210mm"
   height="297mm"
   viewBox="0 0 210 297"
   version="1.1"
   id="svg8"
   inkscape:version="1.0.2 (e86c870879, 2021-01-15, custom)"
   sodipodi:docname="octoprog2.svg">
  <defs
     id="defs2">
    <inkscape:path-effect
       effect="fillet_chamfer"
       id="path-effect3096"
       is_visible="true"
       lpeversion="1"
       satellites_param="C,0,0,1,0,4.2333333,0,1 @ C,0,0,1,0,4.2333333,0,1 @ C,0,0,1,0,4.2333333,0,1 @ C,0,0,1,0,4.2333333,0,1"
       unit="px"
       method="auto"
       mode="F"
       radius="16"
       chamfer_steps="1"
       flexible="false"
       use_knot_distance="true"
       apply_no_radius="true"
       apply_with_radius="true"
       only_selected="false"
       hide_knots="false" />
  </defs>
  <sodipodi:namedview
     id="base"
     pagecolor="#ffffff"
     bordercolor="#666666"
     borderopacity="1.0"
     inkscape:pageopacity="0.0"
     inkscape:pageshadow="2"
     inkscape:zoom="1.4"
     inkscape:cx="446.22758"
     inkscape:cy="320.40712"
     inkscape:document-units="mm"
     inkscape:current-layer="layer3"
     inkscape:document-rotation="0"
     showgrid="false"
     inkscape:window-width="2560"
     inkscape:window-height="1377"
     inkscape:window-x="5288"
     inkscape:window-y="-8"
     inkscape:window-maximized="1"
     inkscape:snap-grids="true">
    <inkscape:grid
       type="xygrid"
       id="grid1621" />
  </sodipodi:namedview>
  <metadata
     id="metadata5">
    <rdf:RDF>
      <cc:Work
         rdf:about="">
        <dc:format>image/svg+xml</dc:format>
        <dc:type
           rdf:resource="http://purl.org/dc/dcmitype/StillImage" />
        <dc:title />
      </cc:Work>
    </rdf:RDF>
  </metadata>
  <g
     inkscape:label="Layer 1"
     inkscape:groupmode="layer"
     id="layer1"
     style="display:inline">
    <circle
       style="fill:#ececec;fill-opacity:1;stroke:#000000;stroke-width:0.424554;stroke-linecap:butt;stroke-linejoin:round;stroke-miterlimit:4;stroke-dasharray:none;paint-order:stroke fill markers"
       id="path3138"
       cx="99.124252"
       cy="95.438988"
       r="89.78772" />
  </g>
  <g
     inkscape:groupmode="layer"
     id="layer3"
     inkscape:label="Layer 2">
    <ellipse
       style="fill:#000000;stroke-width:0.3175"
       id="path81-8"
       cx="74.012436"
       cy="75.303482"
       rx="13.17868"
       ry="12.532249" />
    <ellipse
       style="fill:#000000;stroke-width:0.3175"
       id="path81-6-9"
       cx="128.67133"
       cy="74.605888"
       rx="13.17868"
       ry="12.532249" />
    <ellipse
       style="fill:#ffffff;stroke-width:0.3175"
       id="path129-3"
       cx="134.60158"
       cy="69.43605"
       rx="4.3656301"
       ry="4.50036" />
    <ellipse
       style="fill:#ffffff;stroke-width:0.3175"
       id="path129-6-7"
       cx="80.06823"
       cy="70.470253"
       rx="4.3656301"
       ry="4.50036" />
    <g
       id="g1619">
      <path
         style="fill:none;stroke:#000000;stroke-width:3;stroke-linecap:round;stroke-linejoin:round;stroke-miterlimit:4;stroke-dasharray:none;stroke-opacity:1"
         d="m 91.598646,93.987153 c 0,0 0.06682,10.456917 11.125104,10.289877"
         id="path984-7"
         sodipodi:nodetypes="cc" />
      <path
         style="fill:none;stroke:#000000;stroke-width:3;stroke-linecap:round;stroke-linejoin:round;stroke-miterlimit:4;stroke-dasharray:none;stroke-opacity:1"
         d="m 113.44796,93.920333 c 0,0 0.53454,10.289877 -10.72421,10.356697"
         id="path986-6" />
      <path
         style="fill:none;stroke:#000000;stroke-width:3;stroke-linecap:round;stroke-linejoin:round;stroke-miterlimit:4;stroke-dasharray:none;stroke-opacity:1"
         d="m 91.634905,93.987253 21.746335,-0.067"
         id="path988-8" />
    </g>
    <path
       style="fill:none;stroke:#000000;stroke-width:6;stroke-linecap:round;stroke-linejoin:round;stroke-miterlimit:4;stroke-dasharray:none;stroke-opacity:1"
       d="m 31.720479,87.075222 c 0,0 -2.740326,22.631318 20.363468,23.623508"
       id="path1006-0"
       sodipodi:nodetypes="cc" />
    <path
       style="fill:none;stroke:#000000;stroke-width:6;stroke-linecap:round;stroke-linejoin:round;stroke-miterlimit:4;stroke-dasharray:none;stroke-opacity:1"
       d="m 31.720479,87.075222 c 0,0 6.898065,4.819198 11.811756,2.976558"
       id="path1008-7"
       sodipodi:nodetypes="cc" />
    <path
       style="fill:none;stroke:#000000;stroke-width:6;stroke-linecap:round;stroke-linejoin:round;stroke-miterlimit:4;stroke-dasharray:none;stroke-opacity:1"
       d="m 24.775168,105.78504 c 0,0 10.857403,11.77403 27.308779,4.91369"
       id="path1010-5"
       sodipodi:nodetypes="cc" />
    <path
       style="fill:none;stroke:#000000;stroke-width:6;stroke-linecap:round;stroke-linejoin:round;stroke-miterlimit:4;stroke-dasharray:none;stroke-opacity:1"
       d="m 24.775168,105.78504 c 0,0 -4.110491,25.79688 18.237351,31.56102"
       id="path1012-0" />
    <path
       style="fill:none;stroke:#000000;stroke-width:6;stroke-linecap:round;stroke-linejoin:round;stroke-miterlimit:4;stroke-dasharray:none;stroke-opacity:1"
       d="M 56.666908,118.73073 C -15.568479,-2.93099 214.83922,5.8550445 143.38476,118.63921"
       id="path1018-1"
       sodipodi:nodetypes="cc" />
    <path
       style="fill:none;stroke:#000000;stroke-width:6;stroke-linecap:round;stroke-linejoin:round;stroke-miterlimit:4;stroke-dasharray:none;stroke-opacity:1"
       d="m 156.63219,88.86117 c 8.97373,-0.28412 13.076,-2.55562 13.076,-2.55562 0,0 3.51953,19.01874 -20.46791,22.59347"
       id="path1022-8"
       sodipodi:nodetypes="ccc" />
    <path
       style="fill:none;stroke:#000000;stroke-width:6;stroke-linecap:round;stroke-linejoin:round;stroke-miterlimit:4;stroke-dasharray:none;stroke-opacity:1"
       d="m 176.55697,103.14353 c 0,0 -7.91948,10.50066 -27.31669,5.75549"
       id="path1024-0"
       sodipodi:nodetypes="cc" />
    <path
       style="fill:none;stroke:#000000;stroke-width:6;stroke-linecap:round;stroke-linejoin:round;stroke-miterlimit:4;stroke-dasharray:none;stroke-opacity:1"
       d="m 176.55697,103.14353 c 0,0 7.2831,22.25018 -17.03843,29.33283"
       id="path1026-8" />
    <path
       style="fill:none;stroke:#000000;stroke-width:6;stroke-linecap:round;stroke-linejoin:round;stroke-miterlimit:4;stroke-dasharray:none;stroke-opacity:1"
       d="m 143.38476,118.63921 c 0,0 16.90218,0.17299 16.13378,13.83715 -0.7684,13.66415 -12.51374,14.71705 -12.51374,14.71705"
       id="path1028-2"
       sodipodi:nodetypes="csc" />
    <path
       style="fill:none;stroke:#000000;stroke-width:6;stroke-linecap:round;stroke-linejoin:round;stroke-miterlimit:4;stroke-dasharray:none;stroke-opacity:1"
       d="m 147.0048,147.19341 c 0,0 -14.88248,1.57482 -22.2086,-12.48937 0,0 -4.25894,-14.12286 3.55382,-9.57268 7.78935,4.53655 12.14217,5.00361 12.14217,5.00361"
       id="path1034-8"
       sodipodi:nodetypes="ccsc" />
    <path
       style="fill:none;stroke:#000000;stroke-width:6;stroke-linecap:round;stroke-linejoin:round;stroke-miterlimit:4;stroke-dasharray:none;stroke-opacity:1"
       d="m 56.666908,118.73073 c 0,0 -15.8322,0.89734 -13.109967,14.30962 2.658281,13.09718 14.523174,14.36773 14.523174,14.36773"
       id="path1028-2-0"
       sodipodi:nodetypes="csc" />
    <path
       style="fill:none;stroke:#000000;stroke-width:6;stroke-linecap:round;stroke-linejoin:round;stroke-miterlimit:4;stroke-dasharray:none;stroke-opacity:1"
       d="m 58.080115,147.40808 c 12.33335,1.46244 20.76441,-2.92141 23.222971,-13.27399 0,0 1.219366,-13.65874 -5.727181,-7.87178 -6.466435,5.38699 -11.480709,4.05867 -11.480709,4.05867"
       id="path1034-8-5"
       sodipodi:nodetypes="ccsc" />
    <path
       style="fill:#008000;fill-opacity:1;stroke:#000000;stroke-width:3.065;stroke-linecap:round;stroke-linejoin:round;stroke-miterlimit:4;stroke-dasharray:none;stroke-opacity:1"
       d="m 126.16907,109.90657 -50.375685,3.41386 31.068385,42.63539 z"
       id="path1527"
       sodipodi:nodetypes="cccc" />
    <circle
       style="fill:#ffffff;stroke:#000000;stroke-width:0.4;stroke-linecap:round;stroke-linejoin:round;stroke-miterlimit:4;stroke-dasharray:none"
       id="path1529"
       cx="116.10455"
       cy="116.68703"
       r="1.75" />
    <circle
       style="fill:#ffffff;stroke:#000000;stroke-width:0.4;stroke-linecap:round;stroke-linejoin:round;stroke-miterlimit:4;stroke-dasharray:none"
       id="path1529-5"
       cx="98.947067"
       cy="127.96004"
       r="1.3125" />
    <circle
       style="fill:#ffffff;stroke:#000000;stroke-width:0.4;stroke-linecap:round;stroke-linejoin:round;stroke-miterlimit:4;stroke-dasharray:none"
       id="path1529-5-1"
       cx="107.33919"
       cy="130.19121"
       r="1.3125" />
    <circle
       style="fill:#ffffff;stroke:#000000;stroke-width:0.4;stroke-linecap:round;stroke-linejoin:round;stroke-miterlimit:4;stroke-dasharray:none"
       id="path1529-3"
       cx="105.96484"
       cy="139.68239"
       r="1.75" />
    <circle
       style="fill:#ffffff;stroke:#000000;stroke-width:0.4;stroke-linecap:round;stroke-linejoin:round;stroke-miterlimit:4;stroke-dasharray:none"
       id="path1529-6"
       cx="103.94347"
       cy="118.87351"
       r="1.75" />
    <circle
       style="fill:#ffffff;stroke:#000000;stroke-width:0.4;stroke-linecap:round;stroke-linejoin:round;stroke-miterlimit:4;stroke-dasharray:none"
       id="path1529-5-9"
       cx="92.037201"
       cy="118.11756"
       r="1.3125" />
    <path
       style="fill:#808080;fill-opacity:1;stroke:#000000;stroke-width:0.76358;stroke-linecap:butt;stroke-linejoin:round;stroke-miterlimit:4;stroke-dasharray:none;paint-order:stroke fill markers"
       d="m 172.54756,402.5678 c -23.05304,-7.76723 -35.96453,-24.47514 -40.59554,-52.53201 l -0.25729,-1.55876 4.03403,1.42753 c 5.83174,2.06368 13.29532,3.45775 18.5122,3.45775 h 4.5157 l 4.11847,12.50064 c 3.64639,11.06773 9.58544,26.66497 13.36629,35.1028 0.8292,1.85056 1.08235,2.8995 0.69776,2.89127 -0.33195,-0.007 -2.30818,-0.58725 -4.39162,-1.28922 z"
       id="path3145"
       transform="scale(0.26458333)" />
    <path
       style="fill:#808080;fill-opacity:1;stroke:#000000;stroke-width:0.76358;stroke-linecap:butt;stroke-linejoin:round;stroke-miterlimit:4;stroke-dasharray:none;paint-order:stroke fill markers"
       d="m 148.28965,501.56546 c -10.39013,-4.96817 -21.91332,-14.94442 -28.2148,-24.42711 -7.87082,-11.84429 -12.6464,-25.63279 -14.93301,-43.11597 -0.83762,-6.40434 -1.0132,-11.16009 -0.40077,-10.85505 17.46159,8.69732 22.42866,10.61118 33.0795,12.74586 12.41043,2.48734 22.75259,2.77071 35.48461,0.97223 4.90511,-0.69287 15.1744,-3.01647 17.51263,-3.96252 0.66213,-0.2679 1.28685,0.45802 2.88529,3.35267 1.12209,2.03204 1.87821,3.83184 1.68026,3.99957 -0.19795,0.16773 -1.9509,0.81748 -3.89544,1.44389 -1.94454,0.62642 -5.82954,2.22252 -8.63333,3.54688 -16.14195,7.62464 -26.4892,19.78349 -29.88282,35.11474 -0.85544,3.86456 -1.13656,15.2351 -0.49658,20.08512 0.21077,1.59731 0.20436,2.90419 -0.0143,2.90419 -0.2186,0 -2.09569,-0.81202 -4.17129,-1.8045 z"
       id="path3147"
       transform="scale(0.26458333)" />
    <path
       style="fill:#808080;fill-opacity:1;stroke:#000000;stroke-width:0.76358;stroke-linecap:butt;stroke-linejoin:round;stroke-miterlimit:4;stroke-dasharray:none;paint-order:stroke fill markers"
       d="m 378.87122,387.49162 c -7.33397,-1.45327 -11.99558,-3.84145 -16.72412,-8.56793 -4.35982,-4.35791 -7.40503,-9.98821 -8.97629,-16.59628 l -0.33027,-1.38896 h 34.86951 34.86951 l -0.32977,1.38896 c -3.22902,13.60022 -10.24889,21.2772 -22.34542,24.43708 -5.08777,1.32904 -16.0782,1.70899 -21.03315,0.72713 z"
       id="path3149"
       transform="scale(0.26458333)" />
    <path
       style="fill:#808080;fill-opacity:1;stroke:#000000;stroke-width:0.76358;stroke-linecap:butt;stroke-linejoin:round;stroke-miterlimit:4;stroke-dasharray:none;paint-order:stroke fill markers"
       d="m 583.67964,395.04094 c 0,-0.12569 1.25667,-3.33857 2.7926,-7.13973 4.60862,-11.40554 9.35221,-25.61391 12.03607,-36.05133 l 1.23309,-4.79543 6.61186,-0.5975 c 5.51819,-0.49867 13.94742,-1.82896 22.19357,-3.50257 l 1.68316,-0.34161 -0.35906,2.47058 c -1.69915,11.69119 -7.05173,22.8689 -14.95338,31.22689 -5.43742,5.75144 -11.52114,10.12729 -19.36861,13.93127 -5.85529,2.8383 -11.8693,5.2701 -11.8693,4.79943 z"
       id="path3151"
       transform="scale(0.26458333)" />
    <path
       style="fill:#808080;fill-opacity:1;stroke:#000000;stroke-width:0.76358;stroke-linecap:butt;stroke-linejoin:round;stroke-miterlimit:4;stroke-dasharray:none;paint-order:stroke fill markers"
       d="m 613.25108,484.04609 c -0.10602,-0.34465 -0.68668,-2.32006 -1.29036,-4.3898 -5.32967,-18.2729 -21.56242,-32.39687 -44.70123,-38.89413 -3.0051,-0.84382 -5.55133,-1.62173 -5.6583,-1.7287 -0.10697,-0.10697 1.57813,-3.40722 3.74465,-7.3339 3.68808,-6.6844 4.0196,-7.1201 5.20182,-6.83637 10.37495,2.48995 32.90326,3.48756 45.10316,1.99729 14.67422,-1.79251 28.16513,-6.12751 40.20343,-12.91845 l 3.73678,-2.10796 -0.30268,8.77111 c -0.43966,12.74079 -2.41215,20.8554 -7.47271,30.74193 -6.82472,13.33307 -19.09873,24.5426 -34.6164,31.61423 -2.63532,1.20095 -3.8129,1.52449 -3.94816,1.08475 z"
       id="path3153"
       transform="scale(0.26458333)" />
    <path
       style="fill:#808080;fill-opacity:1;stroke:#000000;stroke-width:0.76358;stroke-linecap:butt;stroke-linejoin:round;stroke-miterlimit:4;stroke-dasharray:none;paint-order:stroke fill markers"
       d="m 226.11507,546.17667 c -14.58785,-1.38972 -26.00821,-6.84443 -35.73588,-17.06852 -2.5013,-2.62895 -5.448,-6.39277 -6.79279,-8.67642 -4.79362,-8.14032 -7.88006,-18.1204 -8.33703,-26.95799 -0.46475,-8.98804 1.60078,-14.52704 7.63875,-20.48432 6.21592,-6.13285 16.14799,-10.2864 29.53623,-12.35192 7.0998,-1.09534 9.21454,-2.1295 11.53983,-5.64325 1.23206,-1.86178 1.39327,-2.57717 1.39327,-6.18288 v -4.07749 l -5.9699,-10.35407 c -6.14692,-10.66107 -17.47409,-32.86528 -21.77207,-42.67894 -11.07467,-25.28698 -18.71338,-49.77612 -22.4501,-71.97337 -2.29798,-13.65067 -2.84218,-20.26065 -2.82766,-34.34518 0.0143,-13.89376 0.70489,-21.15694 3.09549,-32.55772 8.51442,-40.60528 33.57894,-73.4957 73.15829,-96.00055 55.83734,-31.74914 137.34501,-38.01162 206.17564,-15.84109 54.21185,17.46178 94.10296,49.03758 113.83195,90.10366 9.83234,20.46612 14.11782,39.91901 14.13111,64.14468 0.0122,22.2406 -3.41207,42.17794 -11.36391,66.16499 -8.18062,24.67721 -18.24125,45.90868 -34.84617,73.53773 -6.40145,10.65142 -6.94796,12.27969 -5.63615,16.79218 0.89215,3.06888 3.5265,6.10478 6.30455,7.26552 0.99038,0.41381 4.19181,0.9559 7.1143,1.20466 11.12947,0.94734 20.06842,3.3519 28.5471,7.67913 6.56551,3.35082 12.874,9.35284 15.36125,14.61498 3.05124,6.45535 3.86121,14.94374 2.32798,24.39685 -2.62991,16.21464 -10.19145,27.14446 -23.24506,33.59956 -8.62446,4.26486 -14.15831,5.14624 -24.89492,3.96503 -19.95911,-2.19583 -37.69227,-11.05648 -49.46155,-24.71423 -4.00317,-4.64549 -9.63567,-12.99498 -10.54311,-15.62883 -1.43757,-4.17259 -4.13946,-20.47846 -3.50264,-21.13845 0.0792,-0.0821 1.36479,0.57555 2.85686,1.4614 4.21852,2.50458 17.87539,9.27095 22.9159,11.3538 7.30272,3.01765 15.73491,5.72164 21.453,6.87942 5.07089,1.02674 5.44582,1.03816 8.13039,0.24769 6.92182,-2.03812 10.2875,-9.89182 6.98733,-16.30469 -1.99766,-3.88182 -3.84146,-4.98077 -11.69355,-6.96966 -9.00602,-2.28118 -16.62577,-5.33969 -28.16017,-11.30329 -5.13915,-2.65708 -11.04854,-5.70112 -13.13198,-6.76453 -7.5636,-3.86056 -15.62908,-4.54874 -21.08694,-1.79922 -1.4584,0.73471 -2.65165,1.22104 -2.65165,1.08074 0,-0.14029 4.09112,-10.01351 9.09138,-21.94048 5.87514,-14.01382 9.09137,-22.30573 9.09137,-23.43889 0,-4.16937 -2.10764,-5.97354 -6.89438,-5.90174 -1.7758,0.0267 -16.57683,0.95643 -32.89117,2.0662 -16.31434,1.10977 -56.59563,3.83121 -89.51397,6.04766 -75.28569,5.0691 -69.52949,4.54153 -71.31148,6.53592 -1.1438,1.28014 -1.41951,2.06604 -1.41951,4.04631 0,2.4045 0.24105,2.78792 11.15207,17.73924 6.13363,8.4049 10.75493,15.12923 10.26955,14.94298 -2.1718,-0.8334 -6.67073,-0.8751 -10.00536,-0.0927 -4.16967,0.97827 -7.98784,2.94142 -12.42641,6.38913 -6.1383,4.768 -13.83796,9.5646 -17.81597,11.09869 -6.81048,2.6264 -9.31776,3.07219 -16.38818,2.91379 -5.79051,-0.12972 -6.66232,-0.0335 -8.47479,0.93558 -5.07953,2.71581 -7.35079,8.27017 -5.74853,14.05793 0.76689,2.77018 4.57037,6.51018 7.51718,7.39172 3.84466,1.15014 16.48784,0.87989 21.87892,-0.46766 10.20011,-2.54961 20.65992,-7.783 29.76381,-14.89184 l 4.30826,-3.36414 0.33686,1.37281 c 0.18527,0.75505 0.46547,5.2602 0.62266,10.01146 0.2778,8.39703 0.24767,8.75643 -1.07735,12.84954 -6.97986,21.56149 -21.89989,33.39705 -46.1372,36.5991 -5.06955,0.66975 -17.30488,0.90215 -22.32375,0.42402 z M 397.33802,399.30503 c 6.24,-0.94068 11.95148,-2.79275 16.66542,-5.40411 5.10307,-2.82693 11.74838,-9.47254 14.57376,-14.57442 4.76712,-8.60815 7.59501,-22.98447 5.3682,-27.29065 -1.59265,-3.07984 -0.86612,-3.01392 -33.21934,-3.01392 -16.2195,0 -35.70192,0.15109 -43.29428,0.33575 l -13.80429,0.33577 -1.55633,1.39419 c -1.51418,1.35643 -1.55468,1.50804 -1.49579,5.59888 0.0337,2.34101 0.53624,6.17631 1.13379,8.65289 3.88906,16.11855 13.68246,27.22781 28.36229,32.17309 7.08742,2.38758 18.39023,3.13063 27.26657,1.79253 z M 285.9666,331.7945 c 20.75561,-2.54353 37.28706,-16.57979 42.46806,-36.05812 1.26035,-4.73836 1.50174,-14.28717 0.49611,-19.62442 -1.59916,-8.48736 -5.56069,-16.32697 -11.51722,-22.79185 -17.64708,-19.15315 -47.94913,-21.74505 -68.90871,-5.89413 -8.78582,6.64437 -14.53687,15.18199 -17.42521,25.86826 -1.64367,6.08128 -1.64693,16.54166 -0.007,22.69468 5.57049,20.90126 25.11757,35.73853 47.82297,36.30018 1.38896,0.0343 4.57094,-0.18821 7.07106,-0.4946 z m 214.65742,-4.24096 c 16.21536,-4.68499 28.60572,-16.36262 33.49117,-31.56462 4.25081,-13.22721 2.2178,-27.84711 -5.4679,-39.32113 -7.00597,-10.45923 -17.45799,-17.70583 -30.14107,-20.89742 -6.43371,-1.61899 -18.21019,-1.6015 -24.50768,0.0364 -8.32789,2.16597 -14.57056,5.29902 -20.71689,10.39733 -16.44325,13.63946 -21.55441,36.4131 -12.4825,55.61786 5.68342,12.03148 17.4058,21.75113 31.03552,25.73319 8.39654,2.45314 20.29544,2.45247 28.78935,-0.002 z"
       id="path3157"
       transform="scale(0.26458333)" />
  </g>
</svg>
